# xmcd
#
# Track frame offsets: 
#        150
#        10147
#        21811
#        31308
#        41078
#        52312
#        70359
#        85511
#        101711
#        113555
#        134650
#
# Disc length: 2045 seconds
#
# Revision: 2
# Processed by: cddbd v1.5.2PL0 Copyright (c) Steve Scherf et al.
# Submitted via: ExactAudioCopy v0.95b4
#
DISCID=9207fb0b
DTITLE=Taj Mahal - Mule Bone
DYEAR=1900
DGENRE=Blues
TTITLE0=Jubilee
TTITLE1=Graveyard Mule
TTITLE2=Me and the Mule
TTITLE3=Song for a Banjo Dance
TTITLE4=But I Rode Some
TTITLE5=Hey Hey Blues
TTITLE6=Shake That Thing
TTITLE7=The Intermission Blues
TTITLE8=Crossing
TTITLE9=Bound No'th Blues
TTITLE10=Finale
EXTD=Lyrics by Langston Hughes\n
EXTT0=
EXTT1=
EXTT2=
EXTT3=
EXTT4=
EXTT5=
EXTT6=
EXTT7=
EXTT8=
EXTT9=
EXTT10=
PLAYORDER=
